IMDB 
http://www.imdb.com/title/tt0964517/

Fighter [The] (2010) BRrip - [Hard Greek Subs]

Format                           : AVI
Format/Info                      : Audio Video Interleave
File size                        : 1.18 GiB
Duration                         : 1h 55mn
Overall bit rate                 : 1 459 Kbps

Video
ID                               : 0
Format                           : AVC
Format/Info                      : Advanced Video Codec
Codec ID                         : H264
Bit rate                         : 1 000 Kbps
Width                            : 720 pixels
Height                           : 400 pixels
Display aspect ratio             : 16:9
Frame rate                       : 25.000 fps
Stream size                      : 827 MiB (69%)
Writing library                  : x264 core 65

Audio
ID                               : 1
Format                           : AC-3
Format/Info                      : Audio Coding 3
Duration                         : 1h 55mn
Bit rate mode                    : Constant
Bit rate                         : 448 Kbps
Channel(s)                       : 6 channels
Channel positions                : Front: L C R, Side: L R, LFE
Sampling rate                    : 48.0 KHz
Bit depth                        : 16 bits
Compression mode                 : Lossy
Stream size                      : 371 MiB (31%)

